<?xml version="1.0" standalone="no"?><!DOCTYPE svg PUBLIC "-//W3C//DTD SVG 1.1//EN" "http://www.w3.org/Graphics/SVG/1.1/DTD/svg11.dtd"><svg t="1614559791863" class="icon" viewBox="0 0 1024 1024" version="1.1" xmlns="http://www.w3.org/2000/svg" p-id="28609" xmlns:xlink="http://www.w3.org/1999/xlink" width="500" height="500"><defs><style type="text/css"></style></defs><path d="M245.248 840.533333C116.8384 840.533333 12.8 736.494933 12.8 608.085333c0-115.985067 84.992-212.1216 196.096-229.546666 17.595733-151.808 146.602667-269.653333 303.086933-269.653334l5.666134 0.068267c153.9584 2.798933 280.064 119.6032 297.472 269.568 111.104 17.4592 196.061867 113.578667 196.061866 229.5808 0 128.375467-104.0384 232.448-232.3968 232.448z m266.734933-654.848l-5.3248 0.068267c-123.648 2.833067-223.0272 103.9872-223.0272 228.352a38.4 38.4 0 0 1-38.4 38.4c-85.9648 0-155.648 69.649067-155.648 155.5968a155.648 155.648 0 0 0 155.648 155.648h533.5552c85.930667 0 155.5968-69.6832 155.5968-155.648a155.562667 155.562667 0 0 0-155.5968-155.5968 38.4 38.4 0 0 1-38.4-38.4l-0.068266-5.3248c-2.816-123.682133-103.970133-223.0784-228.352-223.0784z" p-id="28610"></path></svg>