<?xml version="1.0" standalone="no"?><!DOCTYPE svg PUBLIC "-//W3C//DTD SVG 1.1//EN" "http://www.w3.org/Graphics/SVG/1.1/DTD/svg11.dtd"><svg t="1614559607435" class="icon" viewBox="0 0 1092 1024" version="1.1" xmlns="http://www.w3.org/2000/svg" p-id="27479" xmlns:xlink="http://www.w3.org/1999/xlink" width="533.203125" height="500"><defs><style type="text/css"></style></defs><path d="M575.010133 115.5072a5.666133 5.666133 0 0 0-2.730666 0h2.730666z m-24.7808 10.6496a18.432 18.432 0 0 1 1.024-1.092267c-0.887467 0.682667-0.955733 0.8192-1.024 1.092267z m57.344 33.655467l-5.7344 9.898666 0.4096 0.273067c1.570133-2.321067 3.072-5.461333 5.3248-10.171733zM755.234133 34.133333v68.266667c-60.484267 0-109.090133 22.050133-154.2144 69.358933l-53.998933 72.157867-55.773867-69.8368C445.0304 125.474133 396.0832 102.4 337.032533 102.4c-62.2592 0-120.832 25.736533-165.205333 72.772267A258.525867 258.525867 0 0 0 102.4 353.621333c0 67.515733 24.644267 130.730667 69.4272 178.244267l356.898133 381.883733A23.893333 23.893333 0 0 0 546.133333 921.6a23.893333 23.893333 0 0 0 17.544534-7.918933l356.829866-381.952a258.116267 258.116267 0 0 0 69.358934-178.176c0-67.584-24.712533-130.8672-69.4272-178.3808-44.373333-47.035733-102.946133-72.772267-165.205334-72.772267v-68.266667c81.237333 0 157.764267 33.655467 214.903467 94.208A326.724267 326.724267 0 0 1 1058.133333 353.621333a326.314667 326.314667 0 0 1-87.8592 224.8704l-356.693333 381.815467A92.16 92.16 0 0 1 546.133333 989.866667a92.16 92.16 0 0 1-67.310933-29.559467L122.0608 578.56A326.4512 326.4512 0 0 1 34.133333 353.553067c0-84.855467 31.197867-164.864 87.995734-225.211734C179.336533 67.720533 255.7952 34.133333 337.032533 34.133333 416.426667 34.133333 483.1232 65.9456 542.037333 128.341333l-2.525866 2.389334 4.437333-0.068267 13.9264-15.1552C616.174933 61.098667 679.662933 34.133333 755.165867 34.133333z" fill="#2c2c2c" p-id="27480"></path></svg>