<?xml version="1.0" standalone="no"?><!DOCTYPE svg PUBLIC "-//W3C//DTD SVG 1.1//EN" "http://www.w3.org/Graphics/SVG/1.1/DTD/svg11.dtd"><svg t="1614559918518" class="icon" viewBox="0 0 1024 1024" version="1.1" xmlns="http://www.w3.org/2000/svg" p-id="32271" xmlns:xlink="http://www.w3.org/1999/xlink" width="500" height="500"><defs><style type="text/css"></style></defs><path d="M128 960H64v-160a224.64 224.64 0 0 1 224-224h192a224.64 224.64 0 0 1 224 224v160h-64v-160a160.48 160.48 0 0 0-160-160H288a160.48 160.48 0 0 0-160 160v160z m672-290.304l-134.784-136.416a88.32 88.32 0 0 1 0-123.712 85.6 85.6 0 0 1 122.112 0l12.8 12.8 12.544-12.8a85.632 85.632 0 0 1 122.112 0 88.32 88.32 0 0 1 0 123.712L800 669.696zM384 512a224 224 0 1 1 224-224 224.256 224.256 0 0 1-224 224z m0-384a160 160 0 1 0 160 160 160.192 160.192 0 0 0-160-160z" p-id="32272"></path></svg>